<svg t="1652947093617" class="icon" viewBox="0 0 1290 1024" version="1.1" xmlns="http://www.w3.org/2000/svg" p-id="6389" width="200" height="200"><path d="M674.16064 131.97312C734.8224 51.8144 831.03744 0 939.27424 0c183.64416 0 332.45184 148.8896 332.45184 332.4928 0 11.18208-0.55296 22.30272-1.6384 33.19808 0 0 1.55648 327.3728-630.1696 656.71168C8.11008 693.0432 1.6384 365.69088 1.6384 365.69088A346.89024 346.89024 0 0 1 0 332.4928C0 148.8896 148.80768 0 332.3904 0c111.67744 0 210.47296 55.0912 270.7456 139.59168l-104.5504 135.68 179.44576 103.15776-157.77792 223.35488 141.25056 116.3264-68.1984-116.3264L798.3104 353.0752l-171.08992-97.95584 46.96064-123.14624z" p-id="6390" fill="#d81e06"></path></svg>